<mxfile host="Electron" agent="Mozilla/5.0 (Windows NT 10.0; Win64; x64) AppleWebKit/537.36 (KHTML, like Gecko) draw.io/24.7.17 Chrome/128.0.6613.36 Electron/32.0.1 Safari/537.36" version="24.7.17">
  <diagram id="Ht1M8jgEwFfnCIfOTk4-" name="Page-1">
    <mxGraphModel dx="1480" dy="1003" grid="1" gridSize="10" guides="1" tooltips="1" connect="1" arrows="1" fold="1" page="1" pageScale="1" pageWidth="1169" pageHeight="827" background="#ffffff" math="0" shadow="0">
      <root>
        <mxCell id="0" />
        <mxCell id="1" parent="0" />
        <mxCell id="mKCqIFvBR12Fy3WNBB5l-85" value="AWS Infra" style="sketch=0;outlineConnect=0;gradientColor=none;html=1;whiteSpace=wrap;fontSize=12;fontStyle=0;shape=mxgraph.aws4.group;grIcon=mxgraph.aws4.group_vpc;strokeColor=#879196;fillColor=none;verticalAlign=top;align=left;spacingLeft=30;fontColor=#879196;dashed=0;" parent="1" vertex="1">
          <mxGeometry x="20" y="60" width="1130" height="640" as="geometry" />
        </mxCell>
        <mxCell id="X3egRULJrrAfO1y8nTuh-27" value="VPC" style="sketch=0;outlineConnect=0;gradientColor=none;html=1;whiteSpace=wrap;fontSize=12;fontStyle=0;shape=mxgraph.aws4.group;grIcon=mxgraph.aws4.group_vpc;strokeColor=#879196;fillColor=none;verticalAlign=top;align=left;spacingLeft=30;fontColor=#879196;dashed=0;" vertex="1" parent="1">
          <mxGeometry x="356" y="130" width="754" height="530" as="geometry" />
        </mxCell>
        <mxCell id="X3egRULJrrAfO1y8nTuh-54" value="Private Database" style="points=[[0,0],[0.25,0],[0.5,0],[0.75,0],[1,0],[1,0.25],[1,0.5],[1,0.75],[1,1],[0.75,1],[0.5,1],[0.25,1],[0,1],[0,0.75],[0,0.5],[0,0.25]];outlineConnect=0;gradientColor=none;html=1;whiteSpace=wrap;fontSize=12;fontStyle=0;container=1;pointerEvents=0;collapsible=0;recursiveResize=0;shape=mxgraph.aws4.group;grIcon=mxgraph.aws4.group_security_group;grStroke=0;strokeColor=#00A4A6;fillColor=#E6F6F7;verticalAlign=top;align=left;spacingLeft=30;fontColor=#147EBA;dashed=0;" vertex="1" parent="1">
          <mxGeometry x="730" y="370" width="200" height="150" as="geometry" />
        </mxCell>
        <mxCell id="X3egRULJrrAfO1y8nTuh-28" value="Private Application" style="points=[[0,0],[0.25,0],[0.5,0],[0.75,0],[1,0],[1,0.25],[1,0.5],[1,0.75],[1,1],[0.75,1],[0.5,1],[0.25,1],[0,1],[0,0.75],[0,0.5],[0,0.25]];outlineConnect=0;gradientColor=none;html=1;whiteSpace=wrap;fontSize=12;fontStyle=0;container=1;pointerEvents=0;collapsible=0;recursiveResize=0;shape=mxgraph.aws4.group;grIcon=mxgraph.aws4.group_security_group;grStroke=0;strokeColor=#00A4A6;fillColor=#E6F6F7;verticalAlign=top;align=left;spacingLeft=30;fontColor=#147EBA;dashed=0;" vertex="1" parent="1">
          <mxGeometry x="730" y="180" width="200" height="160" as="geometry" />
        </mxCell>
        <mxCell id="X3egRULJrrAfO1y8nTuh-30" value="Amazon EC2" style="sketch=0;outlineConnect=0;fontColor=#232F3E;gradientColor=none;strokeColor=#ffffff;fillColor=#232F3E;dashed=0;verticalLabelPosition=middle;verticalAlign=bottom;align=center;html=1;whiteSpace=wrap;fontSize=10;fontStyle=1;spacing=3;shape=mxgraph.aws4.productIcon;prIcon=mxgraph.aws4.ec2;" vertex="1" parent="X3egRULJrrAfO1y8nTuh-28">
          <mxGeometry x="60" y="34" width="80" height="100" as="geometry" />
        </mxCell>
        <mxCell id="X3egRULJrrAfO1y8nTuh-32" value="Public subnet" style="points=[[0,0],[0.25,0],[0.5,0],[0.75,0],[1,0],[1,0.25],[1,0.5],[1,0.75],[1,1],[0.75,1],[0.5,1],[0.25,1],[0,1],[0,0.75],[0,0.5],[0,0.25]];outlineConnect=0;gradientColor=none;html=1;whiteSpace=wrap;fontSize=12;fontStyle=0;container=1;pointerEvents=0;collapsible=0;recursiveResize=0;shape=mxgraph.aws4.group;grIcon=mxgraph.aws4.group_security_group;grStroke=0;strokeColor=#7AA116;fillColor=#F2F6E8;verticalAlign=top;align=left;spacingLeft=30;fontColor=#248814;dashed=0;" vertex="1" parent="1">
          <mxGeometry x="436" y="180" width="200" height="320" as="geometry" />
        </mxCell>
        <mxCell id="X3egRULJrrAfO1y8nTuh-33" value="Application&lt;div&gt;Load Balancer&lt;/div&gt;" style="outlineConnect=0;dashed=0;verticalLabelPosition=bottom;verticalAlign=top;align=center;html=1;shape=mxgraph.aws3.application_load_balancer;fillColor=#F58534;gradientColor=none;" vertex="1" parent="X3egRULJrrAfO1y8nTuh-32">
          <mxGeometry x="54.5" y="190" width="65.5" height="72" as="geometry" />
        </mxCell>
        <mxCell id="X3egRULJrrAfO1y8nTuh-34" value="" style="group" vertex="1" connectable="0" parent="X3egRULJrrAfO1y8nTuh-32">
          <mxGeometry x="42.25" y="46" width="90" height="108" as="geometry" />
        </mxCell>
        <mxCell id="X3egRULJrrAfO1y8nTuh-35" value="" style="sketch=0;outlineConnect=0;fontColor=#232F3E;gradientColor=none;fillColor=#8C4FFF;strokeColor=none;dashed=0;verticalLabelPosition=bottom;verticalAlign=top;align=center;html=1;fontSize=12;fontStyle=0;aspect=fixed;pointerEvents=1;shape=mxgraph.aws4.nat_gateway;" vertex="1" parent="X3egRULJrrAfO1y8nTuh-34">
          <mxGeometry x="6" width="78" height="78" as="geometry" />
        </mxCell>
        <mxCell id="X3egRULJrrAfO1y8nTuh-36" value="NAT Gateway" style="text;html=1;align=center;verticalAlign=middle;whiteSpace=wrap;rounded=0;" vertex="1" parent="X3egRULJrrAfO1y8nTuh-34">
          <mxGeometry y="78" width="90" height="30" as="geometry" />
        </mxCell>
        <mxCell id="X3egRULJrrAfO1y8nTuh-44" style="edgeStyle=orthogonalEdgeStyle;rounded=0;orthogonalLoop=1;jettySize=auto;html=1;fillColor=#dae8fc;strokeColor=#6c8ebf;strokeWidth=3;" edge="1" parent="1">
          <mxGeometry relative="1" as="geometry">
            <mxPoint x="396" y="267.9999999999998" as="sourcePoint" />
            <mxPoint x="484.25000000000045" y="267.9999999999998" as="targetPoint" />
            <Array as="points">
              <mxPoint x="416" y="268" />
              <mxPoint x="416" y="268" />
            </Array>
          </mxGeometry>
        </mxCell>
        <mxCell id="X3egRULJrrAfO1y8nTuh-39" value="Internet Gateway" style="sketch=0;outlineConnect=0;fontColor=#232F3E;gradientColor=none;fillColor=#8C4FFF;strokeColor=none;dashed=0;verticalLabelPosition=bottom;verticalAlign=top;align=center;html=1;fontSize=12;fontStyle=0;aspect=fixed;pointerEvents=1;shape=mxgraph.aws4.internet_gateway;" vertex="1" parent="1">
          <mxGeometry x="316" y="220" width="80" height="80" as="geometry" />
        </mxCell>
        <mxCell id="X3egRULJrrAfO1y8nTuh-45" style="edgeStyle=orthogonalEdgeStyle;rounded=0;orthogonalLoop=1;jettySize=auto;html=1;entryX=0;entryY=0.5;entryDx=0;entryDy=0;entryPerimeter=0;fillColor=#dae8fc;strokeColor=#6c8ebf;strokeWidth=3;" edge="1" parent="1">
          <mxGeometry relative="1" as="geometry">
            <mxPoint x="386" y="290.99908904577546" as="sourcePoint" />
            <mxPoint x="490.50000000000045" y="397" as="targetPoint" />
            <Array as="points">
              <mxPoint x="386" y="397" />
            </Array>
          </mxGeometry>
        </mxCell>
        <mxCell id="X3egRULJrrAfO1y8nTuh-46" style="edgeStyle=orthogonalEdgeStyle;rounded=0;orthogonalLoop=1;jettySize=auto;html=1;exitX=0.92;exitY=0.192;exitDx=0;exitDy=0;exitPerimeter=0;fillColor=#dae8fc;strokeColor=#6c8ebf;strokeWidth=2;" edge="1" parent="1" source="X3egRULJrrAfO1y8nTuh-35">
          <mxGeometry relative="1" as="geometry">
            <mxPoint x="562.25" y="241" as="sourcePoint" />
            <mxPoint x="790" y="239.99999999999977" as="targetPoint" />
          </mxGeometry>
        </mxCell>
        <mxCell id="X3egRULJrrAfO1y8nTuh-49" style="edgeStyle=orthogonalEdgeStyle;rounded=0;orthogonalLoop=1;jettySize=auto;html=1;fillColor=#d5e8d4;strokeColor=#82b366;strokeWidth=3;" edge="1" parent="1" source="X3egRULJrrAfO1y8nTuh-33" target="X3egRULJrrAfO1y8nTuh-30">
          <mxGeometry relative="1" as="geometry">
            <Array as="points">
              <mxPoint x="676" y="406" />
              <mxPoint x="676" y="290" />
            </Array>
          </mxGeometry>
        </mxCell>
        <mxCell id="X3egRULJrrAfO1y8nTuh-52" style="edgeStyle=orthogonalEdgeStyle;rounded=0;orthogonalLoop=1;jettySize=auto;html=1;fillColor=#d5e8d4;strokeColor=#82b366;strokeWidth=3;" edge="1" parent="1">
          <mxGeometry relative="1" as="geometry">
            <mxPoint x="116" y="420" as="sourcePoint" />
            <mxPoint x="196" y="420" as="targetPoint" />
          </mxGeometry>
        </mxCell>
        <mxCell id="X3egRULJrrAfO1y8nTuh-50" value="Amazon Route 53" style="sketch=0;outlineConnect=0;fontColor=#232F3E;gradientColor=none;strokeColor=#ffffff;fillColor=#232F3E;dashed=0;verticalLabelPosition=middle;verticalAlign=bottom;align=center;html=1;whiteSpace=wrap;fontSize=10;fontStyle=1;spacing=3;shape=mxgraph.aws4.productIcon;prIcon=mxgraph.aws4.route_53;" vertex="1" parent="1">
          <mxGeometry x="36" y="370" width="80" height="110" as="geometry" />
        </mxCell>
        <mxCell id="X3egRULJrrAfO1y8nTuh-65" style="edgeStyle=orthogonalEdgeStyle;rounded=0;orthogonalLoop=1;jettySize=auto;html=1;startArrow=classic;startFill=1;" edge="1" parent="1" source="X3egRULJrrAfO1y8nTuh-51" target="X3egRULJrrAfO1y8nTuh-64">
          <mxGeometry relative="1" as="geometry" />
        </mxCell>
        <mxCell id="X3egRULJrrAfO1y8nTuh-74" value="Static Content for caching" style="edgeLabel;html=1;align=center;verticalAlign=middle;resizable=0;points=[];" vertex="1" connectable="0" parent="X3egRULJrrAfO1y8nTuh-65">
          <mxGeometry x="0.0714" y="-1" relative="1" as="geometry">
            <mxPoint as="offset" />
          </mxGeometry>
        </mxCell>
        <mxCell id="X3egRULJrrAfO1y8nTuh-51" value="Amazon Cloudfront" style="sketch=0;outlineConnect=0;fontColor=#232F3E;gradientColor=none;strokeColor=#ffffff;fillColor=#232F3E;dashed=0;verticalLabelPosition=middle;verticalAlign=bottom;align=center;html=1;whiteSpace=wrap;fontSize=10;fontStyle=1;spacing=3;shape=mxgraph.aws4.productIcon;prIcon=mxgraph.aws4.cloudfront;" vertex="1" parent="1">
          <mxGeometry x="196" y="370" width="80" height="110" as="geometry" />
        </mxCell>
        <mxCell id="X3egRULJrrAfO1y8nTuh-53" style="edgeStyle=orthogonalEdgeStyle;rounded=0;orthogonalLoop=1;jettySize=auto;html=1;entryX=0.145;entryY=0.855;entryDx=0;entryDy=0;entryPerimeter=0;fillColor=#d5e8d4;strokeColor=#82b366;strokeWidth=3;" edge="1" parent="1">
          <mxGeometry relative="1" as="geometry">
            <mxPoint x="276" y="418" as="sourcePoint" />
            <mxPoint x="499.9975000000004" y="417.55999999999995" as="targetPoint" />
          </mxGeometry>
        </mxCell>
        <mxCell id="X3egRULJrrAfO1y8nTuh-72" style="edgeStyle=orthogonalEdgeStyle;rounded=0;orthogonalLoop=1;jettySize=auto;html=1;" edge="1" parent="1" source="X3egRULJrrAfO1y8nTuh-29" target="X3egRULJrrAfO1y8nTuh-70">
          <mxGeometry relative="1" as="geometry">
            <Array as="points">
              <mxPoint x="830" y="590" />
            </Array>
          </mxGeometry>
        </mxCell>
        <mxCell id="X3egRULJrrAfO1y8nTuh-29" value="Amazon RDS" style="sketch=0;outlineConnect=0;fontColor=#232F3E;gradientColor=none;strokeColor=#ffffff;fillColor=#232F3E;dashed=0;verticalLabelPosition=middle;verticalAlign=bottom;align=center;html=1;whiteSpace=wrap;fontSize=10;fontStyle=1;spacing=3;shape=mxgraph.aws4.productIcon;prIcon=mxgraph.aws4.rds;" vertex="1" parent="1">
          <mxGeometry x="790" y="400" width="80" height="100" as="geometry" />
        </mxCell>
        <mxCell id="X3egRULJrrAfO1y8nTuh-31" style="edgeStyle=orthogonalEdgeStyle;rounded=0;orthogonalLoop=1;jettySize=auto;html=1;startArrow=classic;startFill=1;fillColor=#f8cecc;strokeColor=#b85450;strokeWidth=3;" edge="1" parent="1" source="X3egRULJrrAfO1y8nTuh-30" target="X3egRULJrrAfO1y8nTuh-29">
          <mxGeometry relative="1" as="geometry">
            <mxPoint x="850.9999999999998" y="280" as="sourcePoint" />
            <Array as="points">
              <mxPoint x="830" y="360" />
              <mxPoint x="830" y="360" />
            </Array>
          </mxGeometry>
        </mxCell>
        <mxCell id="X3egRULJrrAfO1y8nTuh-59" style="edgeStyle=orthogonalEdgeStyle;rounded=0;orthogonalLoop=1;jettySize=auto;html=1;exitX=0.92;exitY=0.821;exitDx=0;exitDy=0;exitPerimeter=0;fillColor=#dae8fc;strokeColor=#6c8ebf;strokeWidth=3;" edge="1" parent="1" source="X3egRULJrrAfO1y8nTuh-35" target="X3egRULJrrAfO1y8nTuh-29">
          <mxGeometry relative="1" as="geometry">
            <Array as="points">
              <mxPoint x="646" y="290" />
              <mxPoint x="646" y="450" />
            </Array>
          </mxGeometry>
        </mxCell>
        <mxCell id="X3egRULJrrAfO1y8nTuh-62" style="edgeStyle=orthogonalEdgeStyle;rounded=0;orthogonalLoop=1;jettySize=auto;html=1;fillColor=#d5e8d4;strokeColor=#82b366;strokeWidth=3;" edge="1" parent="1" source="X3egRULJrrAfO1y8nTuh-61" target="X3egRULJrrAfO1y8nTuh-50">
          <mxGeometry relative="1" as="geometry" />
        </mxCell>
        <mxCell id="X3egRULJrrAfO1y8nTuh-61" value="Users" style="sketch=0;outlineConnect=0;fontColor=#232F3E;gradientColor=none;strokeColor=#232F3E;fillColor=#ffffff;dashed=0;verticalLabelPosition=bottom;verticalAlign=top;align=center;html=1;fontSize=12;fontStyle=0;aspect=fixed;shape=mxgraph.aws4.resourceIcon;resIcon=mxgraph.aws4.users;" vertex="1" parent="1">
          <mxGeometry x="46" y="180" width="60" height="60" as="geometry" />
        </mxCell>
        <mxCell id="X3egRULJrrAfO1y8nTuh-64" value="Amazon S3" style="sketch=0;outlineConnect=0;fontColor=#232F3E;gradientColor=none;strokeColor=#ffffff;fillColor=#232F3E;dashed=0;verticalLabelPosition=middle;verticalAlign=bottom;align=center;html=1;whiteSpace=wrap;fontSize=10;fontStyle=1;spacing=3;shape=mxgraph.aws4.productIcon;prIcon=mxgraph.aws4.s3;" vertex="1" parent="1">
          <mxGeometry x="196" y="214" width="80" height="100" as="geometry" />
        </mxCell>
        <mxCell id="X3egRULJrrAfO1y8nTuh-69" style="edgeStyle=orthogonalEdgeStyle;rounded=0;orthogonalLoop=1;jettySize=auto;html=1;startArrow=classic;startFill=1;" edge="1" parent="1" source="X3egRULJrrAfO1y8nTuh-67" target="X3egRULJrrAfO1y8nTuh-29">
          <mxGeometry relative="1" as="geometry">
            <Array as="points">
              <mxPoint x="1056" y="450" />
            </Array>
          </mxGeometry>
        </mxCell>
        <mxCell id="X3egRULJrrAfO1y8nTuh-76" value="Database Backup on S3" style="edgeLabel;html=1;align=center;verticalAlign=middle;resizable=0;points=[];" vertex="1" connectable="0" parent="X3egRULJrrAfO1y8nTuh-69">
          <mxGeometry x="0.2945" y="1" relative="1" as="geometry">
            <mxPoint x="13" y="-1" as="offset" />
          </mxGeometry>
        </mxCell>
        <mxCell id="X3egRULJrrAfO1y8nTuh-67" value="Amazon S3" style="sketch=0;outlineConnect=0;fontColor=#232F3E;gradientColor=none;strokeColor=#ffffff;fillColor=#232F3E;dashed=0;verticalLabelPosition=middle;verticalAlign=bottom;align=center;html=1;whiteSpace=wrap;fontSize=10;fontStyle=1;spacing=3;shape=mxgraph.aws4.productIcon;prIcon=mxgraph.aws4.s3;" vertex="1" parent="1">
          <mxGeometry x="1016" y="300" width="80" height="100" as="geometry" />
        </mxCell>
        <mxCell id="X3egRULJrrAfO1y8nTuh-68" style="edgeStyle=orthogonalEdgeStyle;rounded=0;orthogonalLoop=1;jettySize=auto;html=1;startArrow=classic;startFill=1;" edge="1" parent="1" source="X3egRULJrrAfO1y8nTuh-30" target="X3egRULJrrAfO1y8nTuh-67">
          <mxGeometry relative="1" as="geometry">
            <Array as="points">
              <mxPoint x="1056" y="264" />
            </Array>
          </mxGeometry>
        </mxCell>
        <mxCell id="X3egRULJrrAfO1y8nTuh-75" value="Application Backup on S3" style="edgeLabel;html=1;align=center;verticalAlign=middle;resizable=0;points=[];" vertex="1" connectable="0" parent="X3egRULJrrAfO1y8nTuh-68">
          <mxGeometry x="-0.0023" y="-1" relative="1" as="geometry">
            <mxPoint x="-15" as="offset" />
          </mxGeometry>
        </mxCell>
        <mxCell id="X3egRULJrrAfO1y8nTuh-71" style="edgeStyle=orthogonalEdgeStyle;rounded=0;orthogonalLoop=1;jettySize=auto;html=1;endArrow=none;endFill=0;startArrow=classic;startFill=1;" edge="1" parent="1" source="X3egRULJrrAfO1y8nTuh-70" target="X3egRULJrrAfO1y8nTuh-30">
          <mxGeometry relative="1" as="geometry">
            <Array as="points">
              <mxPoint x="696" y="560" />
              <mxPoint x="696" y="264" />
            </Array>
          </mxGeometry>
        </mxCell>
        <mxCell id="X3egRULJrrAfO1y8nTuh-70" value="Amazon CloudWatch" style="sketch=0;outlineConnect=0;fontColor=#232F3E;gradientColor=none;strokeColor=#ffffff;fillColor=#232F3E;dashed=0;verticalLabelPosition=middle;verticalAlign=bottom;align=center;html=1;whiteSpace=wrap;fontSize=10;fontStyle=1;spacing=3;shape=mxgraph.aws4.productIcon;prIcon=mxgraph.aws4.cloudwatch;" vertex="1" parent="1">
          <mxGeometry x="596" y="540" width="80" height="110" as="geometry" />
        </mxCell>
        <mxCell id="X3egRULJrrAfO1y8nTuh-73" style="edgeStyle=orthogonalEdgeStyle;rounded=0;orthogonalLoop=1;jettySize=auto;html=1;exitX=0.5;exitY=1;exitDx=0;exitDy=0;exitPerimeter=0;" edge="1" parent="1" source="X3egRULJrrAfO1y8nTuh-33" target="X3egRULJrrAfO1y8nTuh-70">
          <mxGeometry relative="1" as="geometry">
            <Array as="points">
              <mxPoint x="523" y="590" />
            </Array>
          </mxGeometry>
        </mxCell>
      </root>
    </mxGraphModel>
  </diagram>
</mxfile>
